#Comment line ignore any data following # character 
#Hierarchical Translation and Rotation (.htr) file 
[Header]	
#Header keywords are followed by a single value 
FileType HTR		#Single word string
DataType HTRS		#Translation followed by rotation and scale data
FileVersion 1		#integer
NumSegments 84		#integer
NumFrames 2		#integer
DataFrameRate 30		#integer, data frame rate in this file
EulerRotationOrder ZYX
CalibrationUnits mm
RotationUnits Degrees
GlobalAxisofGravity Y
BoneLengthAxis Y
ScaleFactor 1.00
[SegmentNames&Hierarchy]
#CHILD	PARENT
MASTER GLOBAL
root MASTER
chest root
L_mid_tent01 root
R_mid_tent01 root
spine01 root
Bip01_Neck chest
L_humerus chest
R_humerus chest
weapon_bone chest
Bip01_Head Bip01_Neck
eye_left_bone Bip01_Head
eye_right_bone Bip01_Head
L_forearm L_humerus
L_front_hand L_forearm
L_weapon_bone L_forearm
L_front_hand01_01 L_front_hand
L_front_hand02_01 L_front_hand
L_front_hand03_01 L_front_hand
L_front_hand01_02 L_front_hand01_01
L_front_hand02_02 L_front_hand02_01
L_front_hand03_02 L_front_hand03_01
R_forearm R_humerus
R_front_hand R_forearm
R_weapon_bone R_forearm
R_front_hand01_01 R_front_hand
R_front_hand02_01 R_front_hand
R_front_hand03_01 R_front_hand
R_front_hand01_02 R_front_hand01_01
R_front_hand02_02 R_front_hand02_01
R_front_hand03_02 R_front_hand03_01
null_rope01_connect L_mid_tent01
Rope1_Seg01 null_rope01_connect
Rope1_Seg02 Rope1_Seg01
Rope1_Seg03 Rope1_Seg02
Rope1_Seg04 Rope1_Seg03
Rope1_Seg05 Rope1_Seg04
Rope1_Seg06 Rope1_Seg05
Rope1_Seg07 Rope1_Seg06
Rope1_Seg09 Rope1_Seg07
L_mid_hand01 Rope1_Seg09
L_mid_hand02 Rope1_Seg09
L_mid_hand03 Rope1_Seg09
null_rope02_connect R_mid_tent01
Rope2_Seg01 null_rope02_connect
Rope2_Seg02 Rope2_Seg01
Rope2_Seg03 Rope2_Seg02
Rope2_Seg04 Rope2_Seg03
Rope2_Seg05 Rope2_Seg04
Rope2_Seg06 Rope2_Seg05
Rope2_Seg07 Rope2_Seg06
Rope2_Seg09 Rope2_Seg07
R_mid_hand01 Rope2_Seg09
R_mid_hand02 Rope2_Seg09
R_mid_hand03 Rope2_Seg09
spine02 spine01
spine03 spine02
pelvis spine03
null_rope03_connect pelvis
null_rope04_connect pelvis
Rope3_Seg01 null_rope03_connect
Rope3_Seg02 Rope3_Seg01
Rope3_Seg03 Rope3_Seg02
Rope3_Seg04 Rope3_Seg03
Rope3_Seg05 Rope3_Seg04
Rope3_Seg06 Rope3_Seg05
Rope3_Seg07 Rope3_Seg06
Rope3_Seg08 Rope3_Seg07
Rope3_Seg09 Rope3_Seg08
R_rear_hand01 Rope3_Seg09
R_rear_hand02 Rope3_Seg09
R_rear_hand03 Rope3_Seg09
Rope4_Seg01 null_rope04_connect
Rope4_Seg02 Rope4_Seg01
Rope4_Seg03 Rope4_Seg02
Rope4_Seg04 Rope4_Seg03
Rope4_Seg05 Rope4_Seg04
Rope4_Seg06 Rope4_Seg05
Rope4_Seg07 Rope4_Seg06
Rope4_Seg08 Rope4_Seg07
Rope4_Seg09 Rope4_Seg08
L_rear_hand01 Rope4_Seg09
L_rear_hand02 Rope4_Seg09
L_rear_hand03 Rope4_Seg09
[BasePosition]
#SegmentName Tx, Ty, Tz, Rx, Ry, Rz, BoneLength
MASTER 0.000000 0.000000 0.000000 -90.000000 0.000000 0.000000 10.000000 
root 0.000000 0.000000 0.000000 0.000000 0.000000 0.000000 10.000000 
chest 0.000000 0.000000 0.000000 0.000000 0.000000 0.000000 10.000000 
L_mid_tent01 0.000000 0.000000 0.000000 0.000000 0.000000 0.000000 10.000000 
R_mid_tent01 0.000000 0.000000 0.000000 0.000000 0.000000 0.000000 10.000000 
spine01 0.000000 0.000000 0.000000 0.000000 0.000000 0.000000 10.000000 
Bip01_Neck 0.000000 0.000000 0.000000 0.000000 0.000000 0.000000 10.000000 
L_humerus 0.000000 0.000000 0.000000 0.000000 0.000000 0.000000 10.000000 
R_humerus 0.000000 0.000000 0.000000 0.000000 0.000000 0.000000 10.000000 
weapon_bone 0.000000 0.000000 0.000000 0.000000 0.000000 0.000000 10.000000 
Bip01_Head 0.000000 0.000000 0.000000 0.000000 0.000000 0.000000 10.000000 
eye_left_bone 0.000000 0.000000 0.000000 0.000000 0.000000 0.000000 10.000000 
eye_right_bone 0.000000 0.000000 0.000000 0.000000 0.000000 0.000000 10.000000 
L_forearm 0.000000 0.000000 0.000000 0.000000 0.000000 0.000000 10.000000 
L_front_hand 0.000000 0.000000 0.000000 0.000000 0.000000 0.000000 10.000000 
L_weapon_bone 0.000000 0.000000 0.000000 0.000000 0.000000 0.000000 10.000000 
L_front_hand01_01 0.000000 0.000000 0.000000 0.000000 0.000000 0.000000 10.000000 
L_front_hand02_01 0.000000 0.000000 0.000000 0.000000 0.000000 0.000000 10.000000 
L_front_hand03_01 0.000000 0.000000 0.000000 0.000000 0.000000 0.000000 10.000000 
L_front_hand01_02 0.000000 0.000000 0.000000 0.000000 0.000000 0.000000 10.000000 
L_front_hand02_02 0.000000 0.000000 0.000000 0.000000 0.000000 0.000000 10.000000 
L_front_hand03_02 0.000000 0.000000 0.000000 0.000000 0.000000 0.000000 10.000000 
R_forearm 0.000000 0.000000 0.000000 0.000000 0.000000 0.000000 10.000000 
R_front_hand 0.000000 0.000000 0.000000 0.000000 0.000000 0.000000 10.000000 
R_weapon_bone 0.000000 0.000000 0.000000 0.000000 0.000000 0.000000 10.000000 
R_front_hand01_01 0.000000 0.000000 0.000000 0.000000 0.000000 0.000000 10.000000 
R_front_hand02_01 0.000000 0.000000 0.000000 0.000000 0.000000 0.000000 10.000000 
R_front_hand03_01 0.000000 0.000000 0.000000 0.000000 0.000000 0.000000 10.000000 
R_front_hand01_02 0.000000 0.000000 0.000000 0.000000 0.000000 0.000000 10.000000 
R_front_hand02_02 0.000000 0.000000 0.000000 0.000000 0.000000 0.000000 10.000000 
R_front_hand03_02 0.000000 0.000000 0.000000 0.000000 0.000000 0.000000 10.000000 
null_rope01_connect 0.000000 0.000000 0.000000 0.000000 0.000000 0.000000 10.000000 
Rope1_Seg01 0.000000 0.000000 0.000000 0.000000 0.000000 0.000000 10.000000 
Rope1_Seg02 0.000000 0.000000 0.000000 0.000000 0.000000 0.000000 10.000000 
Rope1_Seg03 0.000000 0.000000 0.000000 0.000000 0.000000 0.000000 10.000000 
Rope1_Seg04 0.000000 0.000000 0.000000 0.000000 0.000000 0.000000 10.000000 
Rope1_Seg05 0.000000 0.000000 0.000000 0.000000 0.000000 0.000000 10.000000 
Rope1_Seg06 0.000000 0.000000 0.000000 0.000000 0.000000 0.000000 10.000000 
Rope1_Seg07 0.000000 0.000000 0.000000 0.000000 0.000000 0.000000 10.000000 
Rope1_Seg09 0.000000 0.000000 0.000000 0.000000 0.000000 0.000000 10.000000 
L_mid_hand01 0.000000 0.000000 0.000000 0.000000 0.000000 0.000000 10.000000 
L_mid_hand02 0.000000 0.000000 0.000000 0.000000 0.000000 0.000000 10.000000 
L_mid_hand03 0.000000 0.000000 0.000000 0.000000 0.000000 0.000000 10.000000 
null_rope02_connect 0.000000 0.000000 0.000000 0.000000 0.000000 0.000000 10.000000 
Rope2_Seg01 0.000000 0.000000 0.000000 0.000000 0.000000 0.000000 10.000000 
Rope2_Seg02 0.000000 0.000000 0.000000 0.000000 0.000000 0.000000 10.000000 
Rope2_Seg03 0.000000 0.000000 0.000000 0.000000 0.000000 0.000000 10.000000 
Rope2_Seg04 0.000000 0.000000 0.000000 0.000000 0.000000 0.000000 10.000000 
Rope2_Seg05 0.000000 0.000000 0.000000 0.000000 0.000000 0.000000 10.000000 
Rope2_Seg06 0.000000 0.000000 0.000000 0.000000 0.000000 0.000000 10.000000 
Rope2_Seg07 0.000000 0.000000 0.000000 0.000000 0.000000 0.000000 10.000000 
Rope2_Seg09 0.000000 0.000000 0.000000 0.000000 0.000000 0.000000 10.000000 
R_mid_hand01 0.000000 0.000000 0.000000 0.000000 0.000000 0.000000 10.000000 
R_mid_hand02 0.000000 0.000000 0.000000 0.000000 0.000000 0.000000 10.000000 
R_mid_hand03 0.000000 0.000000 0.000000 0.000000 0.000000 0.000000 10.000000 
spine02 0.000000 0.000000 0.000000 0.000000 0.000000 0.000000 10.000000 
spine03 0.000000 0.000000 0.000000 0.000000 0.000000 0.000000 10.000000 
pelvis 0.000000 0.000000 0.000000 0.000000 0.000000 0.000000 10.000000 
null_rope03_connect 0.000000 0.000000 0.000000 0.000000 0.000000 0.000000 10.000000 
null_rope04_connect 0.000000 0.000000 0.000000 0.000000 0.000000 0.000000 10.000000 
Rope3_Seg01 0.000000 0.000000 0.000000 0.000000 0.000000 0.000000 10.000000 
Rope3_Seg02 0.000000 0.000000 0.000000 0.000000 0.000000 0.000000 10.000000 
Rope3_Seg03 0.000000 0.000000 0.000000 0.000000 0.000000 0.000000 10.000000 
Rope3_Seg04 0.000000 0.000000 0.000000 0.000000 0.000000 0.000000 10.000000 
Rope3_Seg05 0.000000 0.000000 0.000000 0.000000 0.000000 0.000000 10.000000 
Rope3_Seg06 0.000000 0.000000 0.000000 0.000000 0.000000 0.000000 10.000000 
Rope3_Seg07 0.000000 0.000000 0.000000 0.000000 0.000000 0.000000 10.000000 
Rope3_Seg08 0.000000 0.000000 0.000000 0.000000 0.000000 0.000000 10.000000 
Rope3_Seg09 0.000000 0.000000 0.000000 0.000000 0.000000 0.000000 10.000000 
R_rear_hand01 0.000000 0.000000 0.000000 0.000000 0.000000 0.000000 10.000000 
R_rear_hand02 0.000000 0.000000 0.000000 0.000000 0.000000 0.000000 10.000000 
R_rear_hand03 0.000000 0.000000 0.000000 0.000000 0.000000 0.000000 10.000000 
Rope4_Seg01 0.000000 0.000000 0.000000 0.000000 0.000000 0.000000 10.000000 
Rope4_Seg02 0.000000 0.000000 0.000000 0.000000 0.000000 0.000000 10.000000 
Rope4_Seg03 0.000000 0.000000 0.000000 0.000000 0.000000 0.000000 10.000000 
Rope4_Seg04 0.000000 0.000000 0.000000 0.000000 0.000000 0.000000 10.000000 
Rope4_Seg05 0.000000 0.000000 0.000000 0.000000 0.000000 0.000000 10.000000 
Rope4_Seg06 0.000000 0.000000 0.000000 0.000000 0.000000 0.000000 10.000000 
Rope4_Seg07 0.000000 0.000000 0.000000 0.000000 0.000000 0.000000 10.000000 
Rope4_Seg08 0.000000 0.000000 0.000000 0.000000 0.000000 0.000000 10.000000 
Rope4_Seg09 0.000000 0.000000 0.000000 0.000000 0.000000 0.000000 10.000000 
L_rear_hand01 0.000000 0.000000 0.000000 0.000000 0.000000 0.000000 10.000000 
L_rear_hand02 0.000000 0.000000 0.000000 0.000000 0.000000 0.000000 10.000000 
L_rear_hand03 0.000000 0.000000 0.000000 0.000000 0.000000 0.000000 10.000000 
#Beginning of Data. Separated by tabs
#Fr	Tx	Ty	Tz	Rx	Ry	Rz	SF
[MASTER]
45 -412.351837 -6828.457520 84.056694 0.000000 -0.002347 -90.000000 6841.412598
46 -346.465424 -6905.810547 84.056694 0.000000 -0.002347 -90.000000 6915.006348
[root]
45 -26.731308 16.502285 1474.160034 -68.216507 -17.399277 167.202988 1474.494751
46 -20.716167 16.502289 1469.853394 -70.233696 -16.348030 165.381836 1470.092041
[chest]
45 -84.512650 -34.090519 0.000000 9.053086 8.853140 -172.059586 91.129311
46 -84.512650 -34.090519 0.000000 7.373931 7.822161 -175.144241 91.129311
[L_mid_tent01]
45 27.299389 22.179314 -249.918732 -17.130188 1.274668 -6.976714 252.381744
46 27.299397 22.179317 -249.918732 -17.969126 3.002174 -3.583993 252.381744
[R_mid_tent01]
45 23.228794 24.509907 226.238495 -170.680008 -39.236198 43.073631 228.744751
46 23.228794 24.509907 226.238495 -168.588623 -36.609600 38.982033 228.744751
[spine01]
45 -0.361383 -0.195265 0.000000 0.001948 0.001310 22.137520 0.410763
46 -0.361383 -0.195265 0.000000 0.001947 0.001311 22.112318 0.410763
[Bip01_Neck]
45 165.484543 71.581718 0.000119 176.643677 -1.657967 43.431911 180.302734
46 165.484543 71.581718 0.000119 176.643677 -1.657967 43.431911 180.302734
[L_humerus]
45 -13.983130 -135.272980 -120.471481 51.701950 65.645874 138.790955 181.680161
46 -13.983130 -135.272980 -120.471481 44.201057 67.851868 131.827240 181.680161
[R_humerus]
45 -13.983309 -135.273102 125.287651 44.216274 -84.165421 51.080555 184.909012
46 -13.983309 -135.273102 125.287651 38.591629 -82.025475 56.772678 184.909012
[weapon_bone]
45 235.964890 -300.705902 0.000000 0.000000 -89.951546 -128.212341 382.234833
46 235.964890 -300.705902 0.000000 0.000000 -89.951546 -128.212341 382.234833
[Bip01_Head]
45 213.444260 185.715469 11.777020 18.223381 6.152122 -43.833611 283.173767
46 213.444336 185.715485 11.777012 18.223381 6.152122 -43.833611 283.173828
[eye_left_bone]
45 -24.626970 125.451866 -64.772606 0.000000 -90.000000 -99.840431 143.318359
46 -24.626970 125.451866 -64.772606 0.000000 -90.000000 -99.840431 143.318359
[eye_right_bone]
45 -24.626970 125.451866 64.327362 0.000000 -89.965736 80.156380 143.117676
46 -24.626970 125.451866 64.327362 0.000000 -89.965736 80.156380 143.117676
[L_forearm]
45 322.776093 0.000000 -0.000119 0.000399 -0.002313 -109.581451 322.776093
46 322.776093 0.000000 -0.000119 0.000398 -0.002313 -109.537056 322.776093
[L_front_hand]
45 241.149185 -0.042021 -3.300071 -178.667953 -1.835447 -27.422350 241.171753
46 241.149185 -0.042021 -3.300071 -178.667953 -1.835447 -27.422350 241.171753
[L_weapon_bone]
45 156.183838 0.000000 0.000000 0.000014 0.000007 0.000001 156.183838
46 156.183838 0.000000 0.000000 0.000014 0.000007 0.000001 156.183838
[L_front_hand01_01]
45 86.095154 20.947098 -0.655860 -0.366594 -0.477154 75.385574 88.609184
46 86.095154 20.947098 -0.655860 -0.366594 -0.477154 75.385574 88.609184
[L_front_hand02_01]
45 86.935165 -11.437475 24.513514 154.399796 -59.883835 -61.369587 91.046425
46 86.935165 -11.437475 24.513514 154.399796 -59.883835 -61.369587 91.046425
[L_front_hand03_01]
45 86.637497 -14.123976 -20.424902 -153.913879 58.118130 -62.702892 90.126129
46 86.637497 -14.123976 -20.424902 -153.913849 58.118122 -62.702866 90.126129
[L_front_hand01_02]
45 71.020905 -0.000179 0.000030 0.000334 -0.002323 -106.379684 71.020905
46 71.020905 -0.000179 0.000030 0.000334 -0.002323 -106.379684 71.020905
[L_front_hand02_02]
45 71.020927 -0.000119 0.000060 0.000334 -0.002323 -106.379684 71.020927
46 71.020927 -0.000119 0.000060 0.000334 -0.002323 -106.379684 71.020927
[L_front_hand03_02]
45 71.020905 -0.000060 0.000060 0.000334 -0.002323 -106.379684 71.020905
46 71.020905 -0.000060 0.000060 0.000334 -0.002323 -106.379684 71.020905
[R_forearm]
45 322.776428 -0.000060 0.000030 0.202008 0.065452 -108.229744 322.776428
46 322.776428 -0.000060 0.000030 0.202034 0.065369 -108.182938 322.776428
[R_front_hand]
45 238.847015 -0.006795 2.210259 -2.635298 -10.645461 -26.312506 238.857239
46 238.847015 -0.006795 2.210259 -2.635298 -10.645461 -26.312506 238.857239
[R_weapon_bone]
45 155.664093 0.002503 -0.000030 0.003487 0.001180 -90.988930 155.664078
46 155.664093 0.002503 -0.000030 0.003487 0.001180 -90.988930 155.664078
[R_front_hand01_01]
45 87.624611 14.231146 22.918642 -154.633499 -59.950619 61.746044 91.683487
46 87.624611 14.231146 22.918642 -154.633499 -59.950619 61.746044 91.683487
[R_front_hand02_01]
45 89.356956 14.367283 -19.491137 154.602661 58.302849 63.744389 92.579636
46 89.356956 14.367283 -19.491137 154.602661 58.302849 63.744389 92.579636
[R_front_hand03_01]
45 87.286232 -22.307278 -0.143439 0.162155 -0.423168 -75.767921 90.091743
46 87.286232 -22.307278 -0.143439 0.162155 -0.423168 -75.767921 90.091743
[R_front_hand01_02]
45 71.020905 0.000060 0.000119 0.002323 -0.000334 106.381714 71.020905
46 71.020905 0.000060 0.000119 0.002323 -0.000334 106.381714 71.020905
[R_front_hand02_02]
45 71.020844 -0.000030 -0.000119 0.002323 -0.000334 106.381714 71.020836
46 71.020844 -0.000030 -0.000119 0.002323 -0.000334 106.381714 71.020836
[R_front_hand03_02]
45 71.020905 0.000000 0.000030 0.002323 -0.000334 106.381714 71.020905
46 71.020905 0.000000 0.000030 0.002323 -0.000334 106.381714 71.020905
[null_rope01_connect]
45 328.732483 0.000000 -0.000238 68.353889 74.507690 2.549641 328.732483
46 328.732483 0.000000 -0.000238 80.283485 71.896248 9.444923 328.732483
[Rope1_Seg01]
45 0.000000 0.000000 0.000000 99.488602 20.856243 54.890186 0.000000
46 0.000000 0.000000 0.000000 116.006363 20.555397 48.356476 0.000000
[Rope1_Seg02]
45 139.999863 -0.000179 0.000000 -47.104290 4.670708 3.268438 139.999863
46 139.999863 -0.000179 0.000000 -26.996105 5.127012 1.046090 139.999863
[Rope1_Seg03]
45 139.999924 0.000060 -0.000060 -18.273840 -0.215811 6.627177 139.999924
46 139.999924 0.000060 -0.000060 -29.716713 4.172793 4.236264 139.999924
[Rope1_Seg04]
45 139.999924 -0.000060 -0.000119 6.877888 -7.455863 4.221428 139.999924
46 139.999924 -0.000060 -0.000119 -5.001831 -2.976984 5.685145 139.999924
[Rope1_Seg05]
45 139.999832 0.000119 -0.000060 -39.106636 15.563708 18.990911 139.999832
46 139.999832 0.000119 -0.000060 -47.332603 16.430601 14.646038 139.999832
[Rope1_Seg06]
45 139.999954 0.000119 -0.000060 -16.955908 3.146071 26.677540 139.999954
46 139.999954 0.000119 -0.000060 -18.783886 2.761966 21.976410 139.999954
[Rope1_Seg07]
45 139.999985 0.000060 0.000000 -2.795852 -2.683927 10.001399 139.999985
46 139.999985 0.000060 0.000000 -3.388676 -2.483579 8.744193 139.999985
[Rope1_Seg09]
45 121.602913 0.000119 -0.000089 -89.793175 -1.359789 0.847147 121.602913
46 121.602913 0.000119 -0.000089 -89.793175 -1.359789 0.847147 121.602913
[L_mid_hand01]
45 103.859421 1.038730 8.195221 130.544373 -67.584534 -38.866943 104.187431
46 103.859421 1.038730 8.195221 130.544373 -67.584534 -38.866943 104.187431
[L_mid_hand02]
45 105.572853 -4.139662 -10.864139 -168.923172 43.409309 -73.498886 106.211075
46 105.572853 -4.139662 -10.864139 -168.923172 43.409309 -73.498886 106.211075
[L_mid_hand03]
45 104.641464 17.579376 -3.913581 -6.012627 17.808178 74.893677 106.179977
46 104.641464 17.579376 -3.913581 -6.012627 17.808174 74.893669 106.179977
[null_rope02_connect]
45 328.732849 0.000179 -0.000119 145.951355 -38.338718 143.150040 328.732849
46 328.732849 0.000179 -0.000119 149.699371 -42.809155 137.137070 328.732849
[Rope2_Seg01]
45 -0.000043 -0.000023 0.000000 80.511879 -11.555283 92.061584 0.000048
46 -0.000042 -0.000019 0.000000 81.344193 -10.628747 91.598541 0.000046
[Rope2_Seg02]
45 139.999741 -0.000060 -0.000119 6.200114 1.025401 -8.976764 139.999756
46 139.999741 -0.000060 -0.000119 6.095051 0.127966 -8.513058 139.999756
[Rope2_Seg03]
45 140.000107 0.000030 0.000000 8.362118 1.867855 -10.445597 140.000107
46 140.000107 0.000030 0.000000 7.266112 1.932050 -9.547060 140.000107
[Rope2_Seg04]
45 139.999802 0.000000 -0.000060 7.916384 -1.088852 -7.565228 139.999802
46 139.999802 0.000000 -0.000060 5.156232 -2.883615 -4.477383 139.999802
[Rope2_Seg05]
45 139.999985 -0.000060 0.000119 -2.602182 -6.680299 5.849617 139.999985
46 139.999985 -0.000060 0.000119 -1.933292 -8.221794 5.915516 139.999985
[Rope2_Seg06]
45 139.999893 -0.000030 -0.000119 -1.532019 -4.768887 4.234650 139.999893
46 139.999893 -0.000030 -0.000119 -0.547060 -4.611856 2.805746 139.999893
[Rope2_Seg07]
45 139.999893 0.000060 -0.000060 -0.319824 -2.729235 1.656729 139.999893
46 139.999893 0.000060 -0.000060 -0.117109 -2.668118 1.275808 139.999893
[Rope2_Seg09]
45 121.338966 0.000089 -0.000060 33.793236 -1.359788 -0.847141 121.338966
46 121.338966 0.000089 -0.000060 33.793236 -1.359788 -0.847141 121.338966
[R_mid_hand01]
45 104.680779 11.144459 -10.335981 -16.212063 45.237247 70.462852 105.778534
46 104.680779 11.144459 -10.335981 -16.212059 45.237240 70.462852 105.778534
[R_mid_hand02]
45 104.070427 2.443552 8.231699 49.067387 -67.749794 39.286469 104.424065
46 104.070427 2.443552 8.231699 49.067368 -67.749771 39.286453 104.424065
[R_mid_hand03]
45 106.028137 -11.221827 -5.996406 -177.101105 15.551026 -76.585571 106.788818
46 106.028137 -11.221827 -5.996406 -177.101105 15.551026 -76.585571 106.788818
[spine02]
45 129.756927 0.001550 0.000119 0.372907 -4.043520 -13.139647 129.756927
46 129.756927 0.001550 0.000119 0.369330 -4.043887 -13.084734 129.756927
[spine03]
45 78.613991 0.081736 -4.898992 1.904726 3.828353 16.621637 78.766525
46 78.613983 0.081736 -4.898992 1.901698 3.829283 16.579874 78.766518
[pelvis]
45 169.435242 0.051022 0.000000 -18.708347 2.795113 7.283317 169.435257
46 169.435242 0.051022 0.000000 -15.278098 2.409864 8.501319 169.435257
[null_rope03_connect]
45 -1.257226 -2.466202 137.391083 52.712261 84.965652 -51.431614 137.418976
46 -1.257226 -2.466202 137.391083 54.696430 81.803360 -51.670792 137.418976
[null_rope04_connect]
45 -1.259640 -2.480268 -137.844437 52.712261 84.965652 -51.431614 137.872513
46 -1.259640 -2.480268 -137.844437 54.696430 81.803360 -51.670792 137.872513
[Rope3_Seg01]
45 0.000000 0.000000 0.000000 -133.698380 13.077298 87.617180 0.000000
46 0.000000 0.000000 0.000000 -135.419159 16.238363 84.126518 0.000000
[Rope3_Seg02]
45 139.999924 -0.000119 0.000060 0.168485 -1.681114 -2.939188 139.999924
46 139.999924 -0.000119 0.000060 0.332584 -1.369320 -3.262204 139.999924
[Rope3_Seg03]
45 139.999924 -0.000119 0.000119 0.237116 -1.100586 -2.879441 139.999924
46 139.999924 -0.000119 0.000119 0.404971 -1.034759 -3.563618 139.999924
[Rope3_Seg04]
45 139.999924 0.000119 0.000000 0.384831 1.496310 -1.719560 139.999924
46 139.999924 0.000119 0.000000 0.621879 1.064974 -3.544307 139.999924
[Rope3_Seg05]
45 139.999924 -0.000238 0.000060 1.399950 -13.986168 -11.645473 139.999924
46 139.999924 -0.000238 0.000060 0.236020 -9.756824 -6.932176 139.999924
[Rope3_Seg06]
45 139.999893 -0.000119 -0.000060 3.395921 -13.957051 -10.571419 139.999893
46 139.999893 -0.000119 -0.000060 1.472437 -10.968486 -5.985656 139.999893
[Rope3_Seg07]
45 139.999771 0.000060 -0.000119 2.371731 -6.880312 -5.018789 139.999771
46 139.999771 0.000060 -0.000119 1.378689 -5.871445 -3.566103 139.999771
[Rope3_Seg08]
45 139.999985 -0.000060 0.000000 1.844191 -4.022642 -2.706307 139.999985
46 139.999985 -0.000060 0.000000 1.212651 -3.666909 -2.115651 139.999985
[Rope3_Seg09]
45 90.185997 -0.000179 -0.000060 89.793228 -1.359877 -0.847183 90.185997
46 90.185997 -0.000179 -0.000060 89.793228 -1.359877 -0.847183 90.185997
[R_rear_hand01]
45 103.366196 -6.073594 -10.757982 -177.714203 24.565960 -73.910950 104.101845
46 103.366196 -6.073594 -10.757982 -177.714203 24.565960 -73.910950 104.101845
[R_rear_hand02]
45 100.509819 12.039542 -7.992327 -12.874829 36.868488 72.167213 101.543350
46 100.509819 12.039542 -7.992327 -12.874829 36.868488 72.167213 101.543350
[R_rear_hand03]
45 101.539970 5.215704 5.435467 71.484581 -71.816628 21.513813 101.819031
46 101.539970 5.215704 5.435467 71.484581 -71.816628 21.513813 101.819031
[Rope4_Seg01]
45 0.000010 0.000005 -0.000018 46.192295 15.260037 65.442001 0.000021
46 0.000010 0.000004 -0.000015 44.047401 19.490946 60.947693 0.000018
[Rope4_Seg02]
45 139.999985 0.000060 0.000119 0.634277 8.861403 6.681870 139.999985
46 139.999985 0.000060 0.000119 0.577745 6.895279 5.523455 139.999985
[Rope4_Seg03]
45 139.999924 0.000000 -0.000238 0.243527 10.422210 8.424336 139.999924
46 139.999924 0.000000 -0.000238 0.349768 8.058417 6.837626 139.999924
[Rope4_Seg04]
45 139.999985 0.000000 0.000119 -0.766852 10.403450 8.885154 139.999985
46 139.999985 0.000000 0.000119 -0.372479 10.897644 10.378808 139.999985
[Rope4_Seg05]
45 139.999802 -0.000060 -0.000119 2.347250 -5.086820 -6.905169 139.999802
46 139.999802 -0.000060 -0.000119 1.609010 -2.706226 -5.351947 139.999802
[Rope4_Seg06]
45 139.999924 0.000000 0.000060 2.724831 -10.315442 -11.443259 139.999924
46 139.999924 0.000000 0.000060 2.507477 -9.161475 -11.991611 139.999924
[Rope4_Seg07]
45 139.999802 0.000000 0.000000 0.536249 -4.239276 -4.671643 139.999802
46 139.999802 0.000000 0.000000 0.416158 -3.684018 -4.877338 139.999802
[Rope4_Seg08]
45 139.999924 0.000000 0.000119 -1.374678 -2.585356 -2.822204 139.999924
46 139.999924 0.000000 0.000119 -1.452916 -2.061908 -2.757564 139.999924
[Rope4_Seg09]
45 90.185791 0.000060 0.000060 -135.617828 2.228885 0.850567 90.185791
46 90.185791 0.000060 0.000060 -135.617828 2.228885 0.850567 90.185791
[L_rear_hand01]
45 101.696655 -8.392275 -7.654577 -12.874829 -36.868488 107.832764 102.329041
46 101.696655 -8.392275 -7.654577 -12.874829 -36.868488 107.832764 102.329041
[L_rear_hand02]
45 102.726799 -1.568258 5.773216 71.484581 71.816628 158.486160 102.900848
46 102.726799 -1.568258 5.773216 71.484581 71.816628 158.486160 102.900848
[L_rear_hand03]
45 104.552910 9.721220 -10.420293 -177.714203 -24.565960 -106.089035 105.519653
46 104.552910 9.721220 -10.420293 -177.714203 -24.565960 -106.089035 105.519653
